<?xml version="1.0" encoding="UTF-8" standalone="no"?>
<!DOCTYPE svg PUBLIC "-//W3C//DTD SVG 1.1//EN" "http://www.w3.org/Graphics/SVG/1.1/DTD/svg11.dtd">
<svg width="100%" height="100%" viewBox="0 0 200 200" version="1.1" xmlns="http://www.w3.org/2000/svg" xmlns:xlink="http://www.w3.org/1999/xlink" xml:space="preserve" xmlns:serif="http://www.serif.com/" style="fill-rule:evenodd;clip-rule:evenodd;">
    <g transform="matrix(0.965511,0,0,0.969257,3.17245,3.15371)">
        <circle cx="100" cy="100" r="95" style="fill:white;stroke:rgb(44,44,44);stroke-width:16px;"/>
    </g>
    <g transform="matrix(1.07024,0,0,1.21232,102.057,149.403)">
        <path d="M5.244,0L-33.896,0L-33.896,-86.367L8.057,-86.367C18.643,-86.211 26.143,-83.145 30.557,-77.168C33.213,-73.496 34.541,-69.102 34.541,-63.984C34.541,-58.711 33.213,-54.473 30.557,-51.27C29.072,-49.473 26.885,-47.832 23.994,-46.348C28.408,-44.746 31.738,-42.207 33.984,-38.73C36.23,-35.254 37.835,-30.996 37.835,-26.036C37.835,-20.918 36.064,-16.367 33.486,-12.305C31.846,-9.609 29.795,-7.344 27.334,-5.508C24.561,-3.398 21.289,-1.953 17.52,-1.172C13.75,-0.391 9.658,0 5.244,0ZM7.423,-35.354L-9.056,-35.414L-9.195,-18.299L4.541,-18.299C8.33,-18.299 15.123,-19.208 15.347,-27.082C15.537,-33.755 11.173,-35.315 7.423,-35.354ZM9.536,-59.282C9.72,-63.054 7.498,-65.346 4.373,-66.635C4.528,-66.546 -9.408,-66.692 -9.408,-66.692L-9.388,-53.518L3.366,-53.654C7.155,-53.654 9.357,-55.579 9.536,-59.282Z" style="fill:rgb(44,44,44);fill-rule:nonzero;"/>
    </g>
</svg>
